<?xml version="1.0" encoding="UTF-8"?>
<svg id="Layer_1" data-name="Layer 1" xmlns="http://www.w3.org/2000/svg" xmlns:xlink="http://www.w3.org/1999/xlink" viewBox="0 0 26.67 26.67">
  <defs>
    <style>
      .cls-1 {
        fill: none;
      }

      .cls-2 {
        fill: url(#linear-gradient);
      }

      .cls-3 {
        clip-path: url(#clippath);
      }

      .cls-4 {
        fill: #fff;
      }
    </style>
    <clipPath id="clippath">
      <rect class="cls-1" width="103.86" height="26.67"/>
    </clipPath>
    <linearGradient id="linear-gradient" x1="13.33" y1="28.67" x2="13.33" y2="2" gradientTransform="translate(0 28.67) scale(1 -1)" gradientUnits="userSpaceOnUse">
      <stop offset="0" stop-color="#fa5050"/>
      <stop offset=".99" stop-color="#fb0414"/>
    </linearGradient>
  </defs>
  <g class="cls-3">
    <g>
      <path class="cls-2" d="M.03,14.16c-.03-.26-.03-.54-.03-.83C0,5.98,5.98,0,13.33,0s13.33,5.98,13.33,13.33-5.98,13.33-13.33,13.33h-.54c-1.61-.05-2.93-1.19-3.24-2.72-.6-3.47-3.37-6.21-6.86-6.78C1.22,16.83,.1,15.56,.03,14.01v-.18"/>
      <path class="cls-4" d="M12.4,18.38c2.38-.57,4.48-1.81,6.14-3.52,.8-.83,.8-2.23,0-3.06-1.66-1.68-3.78-2.93-6.14-3.52-1.17-.28-2.33,.39-2.67,1.53-.31,1.11-.49,2.3-.49,3.52s.18,2.41,.49,3.55c.34,1.11,1.53,1.79,2.67,1.5Z"/>
    </g>
  </g>
</svg>